<svg xmlns="http://www.w3.org/2000/svg" viewBox="0 0 150.15 150.15">
  <defs>
    <style>
      .cls-1 {
        fill: #e67a7a;
        stroke: #34373d;
        stroke-width: 1.5px;
      }

      .cls-1, .cls-5 {
        stroke-miterlimit: 10;
      }

      .cls-2 {
        fill: #f5caca;
      }

      .cls-3 {
        fill: #a495ad;
      }

      .cls-4 {
        fill: #666;
      }

      .cls-5 {
        fill: none;
        stroke: #666;
        stroke-linecap: square;
        stroke-width: 10.32px;
      }

      .cls-6 {
        fill: #fff;
      }

      .cls-7 {
        fill: #fffdf9;
      }
    </style>
  </defs>
  <g id="Layer_2" data-name="Layer 2">
    <g id="specctr">
      <g id="Dimensions">
        <circle class="cls-1" cx="75.07" cy="75.07" r="74.32"/>
        <g>
          <path class="cls-2" d="M105.58,29.47a4.38,4.38,0,0,0-3.76,2.86,8.22,8.22,0,0,0-4-1,9.6,9.6,0,0,0-18.07-.07,10.38,10.38,0,0,0-5.79-.7,7.73,7.73,0,0,0-6.92-4.7A7.36,7.36,0,0,0,61.8,28.1a9.6,9.6,0,0,0-14.38,2.28h0a8,8,0,0,0-7.78,8.21,8,8,0,0,0,7.78,8.22,7.61,7.61,0,0,0,6-3,9.94,9.94,0,0,0,2.19.26,9.57,9.57,0,0,0,6.72-2.73,7.18,7.18,0,0,0,4.34,1.79,9.87,9.87,0,0,0,9,5.5,10,10,0,0,0,8.23-4.13,9.32,9.32,0,0,0,4.88,1.4,9.44,9.44,0,0,0,6.17-2.33,8.28,8.28,0,0,0,2.85.5,7.81,7.81,0,0,0,5.82-2.47,3.43,3.43,0,0,0,2,.64c2.49,0,4.5-2.86,4.5-6.38S108.07,29.47,105.58,29.47Z"/>
          <path class="cls-3" d="M105.58,29.07a4.63,4.63,0,0,0-3.94,2.72,8.54,8.54,0,0,0-3.54-.89,10,10,0,0,0-18.56-.2A10.68,10.68,0,0,0,75.66,30a10.5,10.5,0,0,0-1.45.1,8.08,8.08,0,0,0-7.16-4.66,7.72,7.72,0,0,0-5.27,2.14,10,10,0,0,0-6.2-2.14A9.93,9.93,0,0,0,47.2,30a8.43,8.43,0,0,0-8,8.61,8.42,8.42,0,0,0,8.18,8.62,8,8,0,0,0,6.17-3,9.86,9.86,0,0,0,8.77-2.39,7.52,7.52,0,0,0,4.06,1.64A10.28,10.28,0,0,0,75.66,49,10.49,10.49,0,0,0,84,45a9.7,9.7,0,0,0,4.77,1.27A9.9,9.9,0,0,0,95,44a8.83,8.83,0,0,0,2.77.44,8.23,8.23,0,0,0,5.88-2.36,3.7,3.7,0,0,0,1.91.53c2.7,0,4.9-3,4.9-6.78S108.28,29.07,105.58,29.07Zm0,12.77a3,3,0,0,1-1.74-.57l-.29-.2-.24.26a7.36,7.36,0,0,1-5.52,2.34,8,8,0,0,1-2.72-.47l-.22-.08-.17.15a8.89,8.89,0,0,1-10.58.89l-.32-.2-.22.31a9.63,9.63,0,0,1-7.9,4A9.47,9.47,0,0,1,67,43l-.1-.21-.24,0A6.8,6.8,0,0,1,62.56,41l-.28-.24-.26.25a9.06,9.06,0,0,1-8.54,2.37l-.24-.05-.16.2a7.24,7.24,0,0,1-5.7,2.84,7.83,7.83,0,0,1-.32-15.61c-.06.24-.1.47-.14.71a7.38,7.38,0,0,0-.08,1.24,6.83,6.83,0,0,0,.44,2.42,6.49,6.49,0,0,1-.14-2.4,7.45,7.45,0,0,1,.5-2h0l.12-.19a9.18,9.18,0,0,1,13.66-2.27c-.08.15-.15.3-.22.46a4.52,4.52,0,0,0-.27,1,3,3,0,0,0,.05,1,2.76,2.76,0,0,0,.4.93,2.68,2.68,0,0,1-.25-.95,2.58,2.58,0,0,1,.1-1,3.84,3.84,0,0,1,.38-.88,3.11,3.11,0,0,1,.25-.38l.22-.22a6.9,6.9,0,0,1,5-2.16,7.22,7.22,0,0,1,6.33,4.05,12.47,12.47,0,0,0-1.87.82,5.15,5.15,0,0,0-1.77,1.43,5,5,0,0,1,1.93-1.07A12.42,12.42,0,0,1,73.74,31h0l.21,0,.16,0a9.53,9.53,0,0,1,1.55-.13,9.78,9.78,0,0,1,3.59.68,21.3,21.3,0,0,0,.12,3.59A21.55,21.55,0,0,1,80,31.74h0l.16-.37a9.18,9.18,0,0,1,17.22-.16l-.62.24a7.58,7.58,0,0,0-.88.49,6.42,6.42,0,0,1,1-.2,6.11,6.11,0,0,1,1,0h.17a8,8,0,0,1,3.61.94,6.64,6.64,0,0,0,.07,2.09,6.4,6.4,0,0,1,.37-1.84h0l.18-.39a4,4,0,0,1,3.4-2.63c2.26,0,4.1,2.68,4.1,6S107.84,41.84,105.58,41.84Z"/>
          <path class="cls-4" d="M114.28,53.64V81.37c0,14.23-6,25.87-20.28,25.87H56.14c-14.22,0-21.06-11.64-21.06-25.87V53.64a55.67,55.67,0,0,1,1-10.68,5.2,5.2,0,0,1,5.11-4.19h67A5.21,5.21,0,0,1,113.33,43,58.54,58.54,0,0,1,114.28,53.64Z"/>
          <line class="cls-5" x1="111.03" y1="64.04" x2="116.67" y2="64.04"/>
          <line class="cls-5" x1="33.47" y1="64.04" x2="38.41" y2="64.04"/>
          <g>
            <circle class="cls-4" cx="75.07" cy="105.64" r="22.8"/>
            <path class="cls-6" d="M75.07,85.64a20,20,0,1,1-20,20,20,20,0,0,1,20-20m0-5.6a25.6,25.6,0,1,0,25.6,25.6A25.64,25.64,0,0,0,75.07,80Z"/>
          </g>
          <path class="cls-7" d="M79.87,65.64a12.8,12.8,0,1,1,25.6.37c-.21,6.37-6,0-13,0S79.87,72.71,79.87,65.64Z"/>
          <path class="cls-7" d="M45.47,65.64a12.8,12.8,0,1,1,25.6.37c-.21,6.37-6,0-13,0S45.47,72.71,45.47,65.64Z"/>
          <circle class="cls-7" cx="75.07" cy="105.64" r="7.2"/>
          <g>
            <circle class="cls-7" cx="67.07" cy="96.84" r="3.6"/>
            <circle class="cls-7" cx="63.19" cy="105.08" r="3.6"/>
            <circle class="cls-7" cx="66.27" cy="113.64" r="3.6"/>
            <circle class="cls-7" cx="74.51" cy="117.52" r="3.6"/>
            <circle class="cls-7" cx="83.07" cy="114.44" r="3.6"/>
            <circle class="cls-7" cx="86.95" cy="106.21" r="3.6"/>
            <circle class="cls-7" cx="83.87" cy="97.64" r="3.6"/>
            <circle class="cls-7" cx="75.64" cy="93.76" r="3.6"/>
          </g>
        </g>
      </g>
    </g>
  </g>
</svg>
